<svg id="etFWKvlenHa1" xmlns="http://www.w3.org/2000/svg" xmlns:xlink="http://www.w3.org/1999/xlink" viewBox="0 0 300 113" shape-rendering="geometricPrecision" text-rendering="geometricPrecision"><g transform="matrix(.1 0 0-.1 0 113)"><path d="M1247,923c-59-62-107-227-110-380l-2-82-39-25c-55-36-91-42-124-20l-27,18l25,6c77,21,120,63,120,118c0,71-50,102-123,77-45-16-105-19-124-7-8,5-8,21,3,62c25,99,12,187-31,204-30,11-85,6-110-10-30-19-55-82-55-137c0-51,29-119,60-140l23-16-27-46c-68-116-129-147-161-85-19,36-23,161-11,323l8,107h-35c-19,0-39-6-44-12-5-7-18-51-27-98-41-198-107-342-157-348-41-5-54,40-54,183c0,66,2,154,5,195l5,75-37,3c-34,3-37,1-49-35-19-54-19-342,0-406c49-170,203-130,278,72l20,54l7-64c18-174,110-218,228-110c29,27,69,75,88,107c33,58,35,59,72,56c36-4,37-6,30-31-12-43-6-106,14-136c44-68,175-72,246-8c16,14,20,13,47-16c37-40,91-43,143-7l36,24l20-21c33-33,116-35,173-4l46,25l21-20c30-30,99-34,140-9c24,16,58,64,67,97c0,1,12,4,28,8c27,6,27,6,27-42c0-57,17-85,49-80c20,2,28,17,50,86c15,45,37,93,50,105l23,22-7-86c-8-102,2-132,42-127c23,3,29,12,49,71c39,115,96,186,80,100-18-97-19-123-2-148c22-34,78-34,126-1l35,24l22-20c27-26,102-35,143-18c38,16,70,55,70,86c0,36-18,38-49,5-33-35-71-47-100-31-31,16-26,23,30,43s89,62,89,112c-1,78-85,103-167,50-31-21-62-89-63-136c0-38-24-69-53-69-21,0-21,21-2,122c16,86,13,103-17,111-43,12-113-47-144-121-21-50-26-35-9,28c16,60,13,85-11,94-23,9-78-18-103-50-26-33-61-110-61-133c0-21-29-62-30-43c0,8-7,29-16,48-14,29-14,37-3,50c12,15,15,14,29-4c15-19,17-16,34,50c21,83,13,103-32,78-19-11-30-28-38-60-9-37-15-46-35-48s-27,3-37,31c-19,54-55,80-107,80-77,0-130-56-142-151-4-40-11-52-33-66-36-21-94-21-111,1-34,40-3,153,42,153c17,0,19-4,14-34-9-43,20-59,47-26c41,50,9,122-53,122-79,0-135-59-146-152-4-39-12-55-29-67-51-33-102,5-72,55c104,168,139,257,142,352c1,84-19,120-67,120-23,0-41-8-60-27Zm61-110c-4-61-13-97-43-166-47-109-60-120-51-41c19,156,56,284,83,284c13,0,15-13,11-77ZM778,783c3-46-14-123-27-123-14,0-36,63-35,102c2,76,57,94,62,21ZM492,688c-3-117-10-140-36-119-8,7-19,10-25,7-5-3-3,18,6,46c8,29,21,81,29,116c9,34,19,62,22,62c4,0,6-51,4-112Zm312-60c4-15,0-27-11-35-23-18-31-16-39,9-4,15-1,25,12,35c25,18,31,17,38-9Zm1456-59c0-22-13-25-29-6-8,10-7,17,1,25c15,15,28,6,28-19Zm-470-25c21-32,28-50,21-57-16-16-37,8-55,59-19,57-6,56,34-2Zm305,26c0-22-29-18-33,3-3,14,1,18,15,15c10-2,18-10,18-18Zm-1071-5c11-29-15-59-68-78-16-7-18-4-12,25c11,56,65,92,80,53Zm696-20c0-22,8-43,20-55c19-19,19-22,5-50-33-63-104-19-92,56c13,77,67,117,67,49Zm788,8c-2-18-15-35-38-51-34-23-35-23-38-3-6,34,25,81,54,81c22,0,25-4,22-27ZM1200,500c-15-35-30-25-30,21c0,34,10,43,28,25c13-12,13-20,2-46Zm906-54c-3-14-11-26-16-26-11,0-13,33-3,70c6,24,6,24,16,3c5-12,7-33,3-47Zm307-1c-2-31-8-39-21-31s-2,68,12,63c6-2,10-17,9-32ZM239,391c-7-2-18,4-26,15-22,30-15,39,13,13c16-15,21-25,13-28Z"/></g></svg>
